<?xml version="1.0" encoding="UTF-8" standalone="no"?>
<!-- Created with Sodipodi ("http://www.sodipodi.com/") -->
<svg
   xmlns:dc="http://purl.org/dc/elements/1.1/"
   xmlns:cc="http://web.resource.org/cc/"
   xmlns:rdf="http://www.w3.org/1999/02/22-rdf-syntax-ns#"
   xmlns:svg="http://www.w3.org/2000/svg"
   xmlns="http://www.w3.org/2000/svg"
   xmlns:sodipodi="http://sodipodi.sourceforge.net/DTD/sodipodi-0.dtd"
   xmlns:inkscape="http://www.inkscape.org/namespaces/inkscape"
   width="48pt"
   height="48pt"
   viewBox="0.237 0.185 123 114"
   overflow="visible"
   enable-background="new 0.237 0.185 123 114"
   xml:space="preserve"
   id="svg153"
   sodipodi:version="0.32"
   sodipodi:docname="network.svg"
   sodipodi:docbase="/home/joss/deb/pkg-gnome/packages/experimental/gnome-themes-extras/icons/Wasp/scalable/apps"
   inkscape:version="0.45"
   inkscape:output_extension="org.inkscape.output.svg.inkscape"
   sodipodi:modified="true"><metadata
   id="metadata89"><rdf:RDF><cc:Work
       rdf:about=""><dc:format>image/svg+xml</dc:format><dc:type
         rdf:resource="http://purl.org/dc/dcmitype/StillImage" /></cc:Work></rdf:RDF></metadata>
  <defs
   id="defs269" />
  <sodipodi:namedview
   id="base"
   inkscape:zoom="6.3166667"
   inkscape:cx="30"
   inkscape:cy="29.920844"
   inkscape:window-width="794"
   inkscape:window-height="588"
   inkscape:window-x="159"
   inkscape:window-y="377"
   inkscape:current-layer="Layer_1_2_" />
  <g
   id="Layer_1_2_">
    <path
   d="M16.27,22.44v35.415l23.992,10.299l25.092-22.44V10.297L41.361,0L16.27,22.44z"
   id="path155" />
    <path
   d="M121.068,51.286c-1.066-4.019-4.789-6.82-7.918-8.101c0.018,0.007-10.301-4.422-21.435-9.202l19.229-17.268l-4.729-2.397    l-19.569,17.49c-11.378-4.884-22.108-9.49-22.108-9.49l-0.293,5.184l46.971,20.294c2.533,1.038,4.535,2.949,5.018,4.772    c0.078,0.292,0.117,0.583,0.117,0.874c0,0.858-0.35,1.721-1.03,2.611c-0.311,0.311-3.557,3.889-3.557,3.889v6.854l7.363-7.478    l0.095-0.12C121.656,56.083,121.569,53.176,121.068,51.286z"
   id="path156" />
    <linearGradient
   id="XMLID_1_"
   gradientUnits="userSpaceOnUse"
   x1="113.5518"
   y1="12.3223"
   x2="105.7848"
   y2="18.4902">
      <stop
   offset="0"
   style="stop-color:#FFFFFF"
   id="stop158" />
      <stop
   offset="1"
   style="stop-color:#000000"
   id="stop159" />
      
      
      
    </linearGradient>
    <path
   fill="url(#XMLID_1_)"
   d="M91.716,33.983L114.6,13.517l-4.891-2.464L86.647,31.808L91.716,33.983z"
   id="path163" />
    <path
   d="M16.535,22.599v35.026L40.215,67.8l24.873-22.246V10.526L41.408,0.354L16.535,22.599z"
   id="path164" />
    <path
   opacity="0.3"
   d="M65.088,45.555L40.215,67.8h11.35l24.873-22.246v-5.408l-11.456-4.896L65.088,45.555z"
   id="path165" />
    <linearGradient
   id="XMLID_2_"
   gradientUnits="userSpaceOnUse"
   x1="42.0396"
   y1="29.752"
   x2="40.3423"
   y2="12.7793">
      <stop
   offset="0"
   style="stop-color:#F2F2F2"
   id="stop167" />
      <stop
   offset="0.3121"
   style="stop-color:#EEEEEE"
   id="stop168" />
      <stop
   offset="0.6646"
   style="stop-color:#E0E0E0"
   id="stop169" />
      <stop
   offset="1"
   style="stop-color:#CCCCCC"
   id="stop170" />
      
      
      
    </linearGradient>
    <path
   fill="url(#XMLID_2_)"
   d="M39.879,32.612L18.27,23.334l4.646-4.156l0.675,0.347l-0.029-0.924l18.183-16.26l21.609,9.274    L39.879,32.612z"
   id="path174" />
    <linearGradient
   id="XMLID_3_"
   gradientUnits="userSpaceOnUse"
   x1="40.6548"
   y1="65.3813"
   x2="29.0975"
   y2="44.6155">
      <stop
   offset="0"
   style="stop-color:#E6E6E6"
   id="stop176" />
      <stop
   offset="0.621"
   style="stop-color:#C7C7C7"
   id="stop177" />
      <stop
   offset="1"
   style="stop-color:#B3B3B3"
   id="stop178" />
      
      
      
    </linearGradient>
    <path
   fill="url(#XMLID_3_)"
   d="M39.879,65.813l-12.688-5.434l-0.018-0.647l-1.051,0.211l-7.853-3.406V23.334l7.844,3.403    l1.148,0.026l-0.067,0.443l12.684,5.405V65.813z"
   id="path182" />
    <path
   opacity="0.3"
   d="M27.173,59.732L26.09,59.81v-33.04l1.171-0.007l-0.088,0.479V59.732z"
   id="path183" />
    <path
   opacity="0.8"
   fill="#FFFFFF"
   d="M28.274,60.85l-1.083-0.471V27.204l1.083,0.47V60.85z"
   id="path184" />
    <linearGradient
   id="XMLID_4_"
   gradientUnits="userSpaceOnUse"
   x1="57.0117"
   y1="42.9404"
   x2="43.835"
   y2="32.6188">
      <stop
   offset="0"
   style="stop-color:#999999"
   id="stop186" />
      <stop
   offset="0.6839"
   style="stop-color:#7B7B7B"
   id="stop187" />
      <stop
   offset="1"
   style="stop-color:#6B6B6B"
   id="stop188" />
      
      
      
    </linearGradient>
    <path
   fill="url(#XMLID_4_)"
   d="M63.354,44.819l-18.284,16.35l-0.833-0.429l0.025,1.151l-4.383,3.921V32.612l23.475-20.997V44.819z    "
   id="path192" />
    <path
   opacity="0.8"
   fill="#FFFFFF"
   d="M23.632,18.541l21.429,9.455l1.135-0.971l-21.776-9.146L23.632,18.541z"
   id="path193" />
    <path
   opacity="0.6"
   fill="#242424"
   d="M45.061,27.996v33.207l1.135-1.014V27.025L45.061,27.996z"
   id="path194" />
    <path
   opacity="0.84"
   fill="#FFFFFF"
   d="M18.27,23.334l0.004,0.967l7.832,3.39l-0.015-0.92l1.171-0.007l-0.088,1.391l12.721,5.404    l0.048-0.876l0.741-0.731l-21.776-9.145L18.27,23.334z"
   id="path195" />
    <path
   opacity="0.3"
   d="M23.59,19.525l20.646,9.141v32.075l0.824,0.421V27.996L23.56,18.6L23.59,19.525z"
   id="path196" />
    <path
   fill="#FFFFFF"
   d="M36.756,38.812l-5.844-2.793v-4.375l5.844,2.793V38.812z"
   id="path197" />
    <g
   id="g198">
      <path
   fill="#302F92"
   d="M32.921,34.588c0.356,0.172,0.621,0.373,0.793,0.601c0.173,0.228,0.258,0.46,0.258,0.696     c0,0.206-0.059,0.358-0.176,0.46c-0.118,0.101-0.268,0.137-0.452,0.108c-0.183-0.029-0.428-0.106-0.736-0.231l-1.234-0.502     v-0.112l0.121,0.049c0.135,0.055,0.228,0.076,0.279,0.061c0.052-0.014,0.085-0.056,0.099-0.125     c0.014-0.068,0.021-0.239,0.021-0.511l0.002-1.587c0-0.264-0.007-0.438-0.022-0.521c-0.015-0.083-0.045-0.148-0.093-0.197     c-0.047-0.048-0.151-0.104-0.311-0.17l-0.061-0.024V32.47l0.518,0.195l0.589,0.221c0.86,0.35,1.29,0.781,1.29,1.293     c0,0.211-0.074,0.352-0.221,0.42C33.439,34.667,33.217,34.664,32.921,34.588z M32.352,34.429l0,0.728     c0,0.311,0.005,0.509,0.016,0.598c0.011,0.088,0.04,0.163,0.087,0.225c0.047,0.063,0.141,0.123,0.28,0.18     c0.248,0.101,0.434,0.111,0.558,0.03c0.124-0.082,0.186-0.254,0.186-0.518c0-0.27-0.069-0.498-0.21-0.683     c-0.14-0.185-0.387-0.349-0.739-0.494C32.472,34.473,32.414,34.451,32.352,34.429z M32.352,34.31     c0.039,0.018,0.071,0.031,0.098,0.042c0.335,0.136,0.563,0.174,0.686,0.115c0.122-0.06,0.184-0.211,0.185-0.455     c0-0.17-0.024-0.312-0.072-0.425c-0.048-0.113-0.121-0.214-0.216-0.304c-0.096-0.089-0.26-0.181-0.493-0.276     c-0.061-0.025-0.123-0.047-0.186-0.068L32.352,34.31z"
   id="path199" />
      <path
   fill="#FB0F0C"
   d="M36.074,36.32l-1.326-0.54c-0.006,0.093-0.01,0.163-0.01,0.21c0,0.351,0.053,0.636,0.156,0.854     c0.104,0.218,0.262,0.371,0.469,0.455c0.281,0.115,0.481,0.064,0.6-0.152l0.109,0.044c-0.049,0.143-0.146,0.229-0.295,0.261     c-0.146,0.031-0.307,0.012-0.479-0.059c-0.161-0.065-0.312-0.169-0.456-0.312c-0.143-0.142-0.26-0.309-0.351-0.5     s-0.137-0.396-0.136-0.615c0-0.31,0.088-0.532,0.265-0.666s0.397-0.146,0.661-0.04c0.249,0.102,0.441,0.257,0.577,0.467     S36.066,36.137,36.074,36.32z M35.675,36.062c0.005-0.035,0.008-0.067,0.008-0.095c0-0.142-0.04-0.268-0.12-0.377     c-0.08-0.111-0.18-0.19-0.297-0.237c-0.283-0.116-0.453-0.003-0.508,0.336L35.675,36.062z"
   id="path200" />
    </g>
    <path
   d="M63.484,68.681v35.414l23.992,10.3l25.092-22.44V56.539L88.576,46.241L63.484,68.681z"
   id="path201" />
    <path
   d="M63.75,68.84v35.026l23.68,10.174l24.873-22.244V56.767l-23.68-10.172L63.75,68.84z"
   id="path202" />
    <path
   opacity="0.3"
   d="M112.303,91.796L87.43,114.041h11.35l24.873-22.244v-5.408l-11.456-4.896L112.303,91.796z"
   id="path203" />
    <linearGradient
   id="XMLID_5_"
   gradientUnits="userSpaceOnUse"
   x1="89.2549"
   y1="75.9937"
   x2="87.5576"
   y2="59.021">
      <stop
   offset="0"
   style="stop-color:#F2F2F2"
   id="stop205" />
      <stop
   offset="0.3121"
   style="stop-color:#EEEEEE"
   id="stop206" />
      <stop
   offset="0.6646"
   style="stop-color:#E0E0E0"
   id="stop207" />
      <stop
   offset="1"
   style="stop-color:#CCCCCC"
   id="stop208" />
      
      
      
    </linearGradient>
    <path
   fill="url(#XMLID_5_)"
   d="M87.094,78.853l-21.609-9.277l4.646-4.156l0.675,0.347l-0.028-0.925l18.183-16.259l21.609,9.274    L87.094,78.853z"
   id="path212" />
    <linearGradient
   id="XMLID_6_"
   gradientUnits="userSpaceOnUse"
   x1="87.8691"
   y1="111.6226"
   x2="76.3119"
   y2="90.8567">
      <stop
   offset="0"
   style="stop-color:#E6E6E6"
   id="stop214" />
      <stop
   offset="0.621"
   style="stop-color:#C7C7C7"
   id="stop215" />
      <stop
   offset="1"
   style="stop-color:#B3B3B3"
   id="stop216" />
      
      
      
    </linearGradient>
    <path
   fill="url(#XMLID_6_)"
   d="M87.094,112.054l-12.688-5.434l-0.018-0.648l-1.052,0.212l-7.853-3.406V69.576l7.844,3.403    l1.148,0.026l-0.066,0.443l12.684,5.404V112.054z"
   id="path220" />
    <path
   opacity="0.3"
   d="M74.389,105.972l-1.084,0.079v-33.04l1.172-0.006l-0.088,0.479V105.972z"
   id="path221" />
    <path
   opacity="0.8"
   fill="#FFFFFF"
   d="M75.488,107.091l-1.082-0.471V73.445l1.082,0.471V107.091z"
   id="path222" />
    <linearGradient
   id="XMLID_7_"
   gradientUnits="userSpaceOnUse"
   x1="104.2266"
   y1="89.1812"
   x2="91.0499"
   y2="78.8596">
      <stop
   offset="0"
   style="stop-color:#999999"
   id="stop224" />
      <stop
   offset="0.6839"
   style="stop-color:#7B7B7B"
   id="stop225" />
      <stop
   offset="1"
   style="stop-color:#6B6B6B"
   id="stop226" />
      
      
      
    </linearGradient>
    <path
   fill="url(#XMLID_7_)"
   d="M110.568,91.06l-18.284,16.352l-0.833-0.43l0.025,1.151l-4.383,3.921V78.853l23.475-20.997V91.06z"
   id="path230" />
    <path
   opacity="0.8"
   fill="#FFFFFF"
   d="M70.847,64.783l21.429,9.454l1.135-0.971l-21.775-9.146L70.847,64.783z"
   id="path231" />
    <path
   opacity="0.6"
   fill="#242424"
   d="M92.275,74.237v33.207l1.135-1.014V73.266L92.275,74.237z"
   id="path232" />
    <path
   opacity="0.84"
   fill="#FFFFFF"
   d="M65.484,69.576l0.004,0.967l7.832,3.39l-0.016-0.921l1.172-0.006l-0.088,1.391L87.109,79.8    l0.048-0.877l0.741-0.73l-21.775-9.146L65.484,69.576z"
   id="path233" />
    <path
   opacity="0.3"
   d="M70.805,65.766l20.646,9.141v32.075l0.824,0.42V74.237l-21.501-9.396L70.805,65.766z"
   id="path234" />
    <path
   fill="#FFFFFF"
   d="M83.971,85.053l-5.844-2.793v-4.376l5.844,2.794V85.053z"
   id="path235" />
    <g
   id="g236">
      <path
   fill="#302F92"
   d="M80.136,80.83c0.356,0.172,0.621,0.373,0.794,0.6c0.173,0.229,0.258,0.461,0.258,0.697     c0,0.205-0.059,0.357-0.176,0.459c-0.118,0.102-0.269,0.137-0.452,0.108c-0.183-0.029-0.429-0.106-0.735-0.231L78.59,81.96     v-0.113l0.121,0.049c0.135,0.056,0.227,0.076,0.279,0.062c0.052-0.015,0.084-0.056,0.099-0.124     c0.014-0.068,0.021-0.24,0.021-0.512l0.002-1.587c0-0.265-0.007-0.438-0.021-0.521c-0.016-0.082-0.046-0.148-0.094-0.197     c-0.047-0.047-0.15-0.104-0.311-0.17l-0.061-0.023v-0.112l0.518,0.194l0.59,0.222c0.859,0.351,1.289,0.781,1.289,1.294     c0,0.211-0.073,0.352-0.221,0.42C80.654,80.909,80.432,80.905,80.136,80.83z M79.566,80.67v0.728     c-0.001,0.311,0.004,0.51,0.016,0.598c0.01,0.088,0.039,0.163,0.086,0.226c0.048,0.063,0.141,0.123,0.28,0.18     c0.248,0.101,0.435,0.11,0.558,0.03c0.124-0.082,0.187-0.254,0.187-0.518c0.001-0.271-0.069-0.498-0.21-0.684     c-0.14-0.185-0.387-0.348-0.739-0.493C79.688,80.714,79.629,80.693,79.566,80.67z M79.566,80.55     c0.039,0.018,0.071,0.031,0.098,0.043c0.335,0.137,0.563,0.174,0.686,0.115c0.123-0.06,0.184-0.211,0.186-0.455     c0-0.17-0.025-0.312-0.072-0.425c-0.049-0.112-0.121-0.214-0.217-0.304s-0.26-0.182-0.492-0.276     c-0.061-0.024-0.123-0.048-0.186-0.068L79.566,80.55z"
   id="path237" />
      <path
   fill="#FB0F0C"
   d="M83.289,82.561l-1.326-0.54c-0.006,0.094-0.01,0.164-0.01,0.211c0,0.351,0.053,0.636,0.156,0.854     c0.104,0.219,0.262,0.371,0.469,0.455c0.281,0.115,0.481,0.064,0.6-0.152l0.109,0.045c-0.049,0.143-0.146,0.229-0.295,0.261     c-0.146,0.031-0.307,0.012-0.479-0.059c-0.161-0.065-0.312-0.169-0.456-0.312c-0.143-0.143-0.26-0.309-0.351-0.5     c-0.091-0.19-0.137-0.395-0.136-0.614c0-0.31,0.088-0.532,0.265-0.665c0.177-0.135,0.397-0.146,0.661-0.04     c0.249,0.102,0.441,0.257,0.577,0.468C83.209,82.181,83.281,82.378,83.289,82.561z M82.89,82.304     c0.005-0.035,0.008-0.067,0.008-0.096c0-0.142-0.04-0.268-0.12-0.377c-0.08-0.111-0.18-0.19-0.297-0.238     c-0.283-0.115-0.453-0.003-0.508,0.337L82.89,82.304z"
   id="path238" />
    </g>
    
  </g>
</svg>