<?xml version="1.0" encoding="UTF-8" standalone="no"?>
<!DOCTYPE svg PUBLIC "-//W3C//DTD SVG 20010904//EN"
"http://www.w3.org/TR/2001/REC-SVG-20010904/DTD/svg10.dtd">
<!-- Created with Sodipodi ("http://www.sodipodi.com/") -->
<svg
   width="48pt"
   height="48pt"
   viewBox="0.414 -0.448 90 118"
   overflow="visible"
   enable-background="new 0.414 -0.448 90 118"
   xml:space="preserve"
   xmlns="http://www.w3.org/2000/svg"
   xmlns:xml="http://www.w3.org/XML/1998/namespace"
   xmlns:a="http://ns.adobe.com/AdobeSVGViewerExtensions/3.0/"
   xmlns:sodipodi="http://sodipodi.sourceforge.net/DTD/sodipodi-0.dtd"
   xmlns:xlink="http://www.w3.org/1999/xlink"
   id="svg153"
   sodipodi:version="0.32pre"
   sodipodi:docname="/home/cschalle/gnome-themes-extras/Wasp/icons/scalable/stock/stock_dialog_info.svg"
   sodipodi:docbase="/home/cschalle/gnome-themes-extras/Wasp/icons/scalable/stock">
  <defs
     id="defs337" />
  <sodipodi:namedview
     id="base" />
  <g
     id="Layer_1_2_">
    <g
       a:adobe-knockout="true"
       id="g155">
      <path
         fill="#FFFF07"
         a:adobe-knockout="false"
         d="M2.603,37.606c0-19.405,15.73-35.135,35.135-35.135     c19.404,0,35.135,15.73,35.135,35.135c0,19.404-15.73,35.135-35.135,35.135C18.333,72.741,2.603,57.01,2.603,37.606z"
         id="path156" />
      <path
         fill="#FFFF0A"
         a:adobe-knockout="false"
         d="M37.63,2.6c19.236,0,34.831,15.594,34.831,34.831     c0,19.236-15.595,34.831-34.831,34.831c-19.237,0-34.832-15.595-34.832-34.831C2.799,18.194,18.394,2.6,37.63,2.6z"
         id="path157" />
      <path
         fill="#FFFF0E"
         a:adobe-knockout="false"
         d="M37.522,2.729c19.068,0,34.527,15.458,34.527,34.527     S56.59,71.782,37.522,71.782c-19.068,0-34.526-15.458-34.526-34.526S18.454,2.729,37.522,2.729z"
         id="path158" />
      <path
         fill="#FFFF11"
         a:adobe-knockout="false"
         d="M37.414,2.858c18.9,0,34.222,15.322,34.222,34.222     S56.314,71.303,37.414,71.303S3.191,55.98,3.191,37.08S18.514,2.858,37.414,2.858z"
         id="path159" />
      <path
         fill="#FFFF14"
         a:adobe-knockout="false"
         d="M37.306,2.987c18.732,0,33.917,15.186,33.917,33.918     S56.038,70.824,37.306,70.824c-18.732,0-33.918-15.187-33.918-33.919S18.574,2.987,37.306,2.987z"
         id="path160" />
      <path
         fill="#FFFF18"
         a:adobe-knockout="false"
         d="M37.198,3.117c18.564,0,33.613,15.049,33.613,33.614     S55.763,70.345,37.198,70.345S3.584,55.295,3.584,36.73S18.634,3.117,37.198,3.117z"
         id="path161" />
      <path
         fill="#FFFF1B"
         a:adobe-knockout="false"
         d="M37.09,3.246c18.396,0,33.31,14.913,33.31,33.31     c0,18.396-14.914,33.31-33.31,33.31c-18.396,0-33.31-14.914-33.31-33.31C3.78,18.159,18.693,3.246,37.09,3.246z"
         id="path162" />
      <path
         fill="#FFFF1E"
         a:adobe-knockout="false"
         d="M36.982,3.375c18.228,0,33.005,14.777,33.005,33.005     c0,18.228-14.777,33.005-33.005,33.005c-18.229,0-33.005-14.778-33.005-33.005C3.977,18.152,18.753,3.375,36.982,3.375z"
         id="path163" />
      <path
         fill="#FFFF21"
         a:adobe-knockout="false"
         d="M36.874,3.504c18.061,0,32.701,14.641,32.701,32.701     S54.935,68.906,36.874,68.906c-18.06,0-32.701-14.641-32.701-32.701S18.814,3.504,36.874,3.504z"
         id="path164" />
      <path
         fill="#FFFF25"
         a:adobe-knockout="false"
         d="M36.766,3.633c17.892,0,32.396,14.504,32.396,32.396     S54.657,68.427,36.766,68.427c-17.893,0-32.397-14.505-32.397-32.397S18.873,3.633,36.766,3.633z"
         id="path165" />
      <path
         fill="#FFFF28"
         a:adobe-knockout="false"
         d="M36.658,3.762c17.724,0,32.092,14.368,32.092,32.093     c0,17.724-14.368,32.092-32.092,32.092c-17.725,0-32.093-14.369-32.093-32.092C4.565,18.13,18.933,3.762,36.658,3.762z"
         id="path166" />
      <path
         fill="#FFFF2B"
         a:adobe-knockout="false"
         d="M36.55,3.892c17.556,0,31.788,14.232,31.788,31.788     S54.105,67.469,36.55,67.469c-17.557,0-31.788-14.233-31.788-31.789S18.993,3.892,36.55,3.892z"
         id="path167" />
      <path
         fill="#FFFF2F"
         a:adobe-knockout="false"
         d="M36.441,4.021c17.388,0,31.484,14.096,31.484,31.484     c0,17.388-14.096,31.484-31.484,31.484S4.958,52.892,4.958,35.504C4.958,18.116,19.053,4.021,36.441,4.021z"
         id="path168" />
      <path
         fill="#FFFF32"
         a:adobe-knockout="false"
         d="M36.333,4.15c17.22,0,31.179,13.959,31.179,31.179     c0,17.22-13.959,31.18-31.179,31.18s-31.18-13.96-31.18-31.18C5.154,18.109,19.113,4.15,36.333,4.15z"
         id="path169" />
      <path
         fill="#FFFF35"
         a:adobe-knockout="false"
         d="M36.226,4.279c17.052,0,30.875,13.823,30.875,30.875     S53.277,66.03,36.226,66.03C19.173,66.03,5.35,52.207,5.35,35.154S19.173,4.279,36.226,4.279z"
         id="path170" />
      <path
         fill="#FFFF39"
         a:adobe-knockout="false"
         d="M36.118,4.408c16.883,0,30.57,13.687,30.57,30.571     c0,16.884-13.687,30.571-30.57,30.571c-16.884,0-30.571-13.688-30.571-30.571C5.546,18.095,19.233,4.408,36.118,4.408z"
         id="path171" />
      <path
         fill="#FFFF3C"
         a:adobe-knockout="false"
         d="M36.009,4.538c16.716,0,30.267,13.551,30.267,30.267     S52.726,65.071,36.009,65.071c-16.716,0-30.267-13.551-30.267-30.267S19.293,4.538,36.009,4.538z"
         id="path172" />
      <path
         fill="#FFFF3F"
         a:adobe-knockout="false"
         d="M35.901,4.667c16.548,0,29.962,13.415,29.962,29.962     S52.449,64.592,35.901,64.592c-16.548,0-29.962-13.415-29.962-29.963S19.353,4.667,35.901,4.667z"
         id="path173" />
      <path
         fill="#FFFF43"
         a:adobe-knockout="false"
         d="M35.793,4.795c16.38,0,29.658,13.278,29.658,29.658     c0,16.38-13.278,29.659-29.658,29.659S6.135,50.833,6.135,34.454C6.135,18.073,19.413,4.795,35.793,4.795z"
         id="path174" />
      <path
         fill="#FFFF46"
         a:adobe-knockout="false"
         d="M35.685,4.925c16.211,0,29.354,13.142,29.354,29.354     c0,16.211-13.143,29.354-29.354,29.354c-16.212,0-29.354-13.143-29.354-29.354C6.331,18.067,19.473,4.925,35.685,4.925z"
         id="path175" />
      <path
         fill="#FFFF49"
         a:adobe-knockout="false"
         d="M35.577,5.054c16.044,0,29.05,13.006,29.05,29.05s-13.006,29.05-29.05,29.05     S6.528,50.148,6.528,34.104S19.533,5.054,35.577,5.054z"
         id="path176" />
      <path
         fill="#FFFF4D"
         a:adobe-knockout="false"
         d="M35.469,5.183c15.875,0,28.745,12.869,28.745,28.746     c0,15.875-12.869,28.746-28.745,28.746c-15.876,0-28.746-12.871-28.746-28.746C6.724,18.052,19.593,5.183,35.469,5.183z"
         id="path177" />
      <path
         fill="#FFFF50"
         a:adobe-knockout="false"
         d="M35.361,5.312c15.708,0,28.441,12.733,28.441,28.441     c0,15.707-12.733,28.442-28.441,28.442c-15.708,0-28.441-12.735-28.441-28.442C6.919,18.045,19.653,5.312,35.361,5.312z"
         id="path178" />
      <path
         fill="#FFFF53"
         a:adobe-knockout="false"
         d="M35.253,5.441c15.539,0,28.137,12.597,28.137,28.137     c0,15.54-12.598,28.138-28.137,28.138c-15.54,0-28.137-12.598-28.137-28.138C7.116,18.039,19.713,5.441,35.253,5.441z"
         id="path179" />
      <path
         fill="#FFFF56"
         a:adobe-knockout="false"
         d="M35.145,5.571c15.372,0,27.833,12.461,27.833,27.833     S50.517,61.236,35.145,61.236S7.312,48.775,7.312,33.403S19.773,5.571,35.145,5.571z"
         id="path180" />
      <path
         fill="#FFFF5A"
         a:adobe-knockout="false"
         d="M35.037,5.7c15.203,0,27.527,12.324,27.527,27.528     c0,15.204-12.324,27.529-27.527,27.529c-15.204,0-27.529-12.325-27.529-27.529C7.508,18.024,19.833,5.7,35.037,5.7z"
         id="path181" />
      <path
         fill="#FFFF5D"
         a:adobe-knockout="false"
         d="M34.928,5.829c15.036,0,27.224,12.188,27.224,27.224     S49.964,60.277,34.928,60.277S7.705,48.088,7.705,33.053S19.893,5.829,34.928,5.829z"
         id="path182" />
      <path
         fill="#FFFF60"
         a:adobe-knockout="false"
         d="M34.821,5.958c14.867,0,26.919,12.052,26.919,26.919     c0,14.867-12.053,26.921-26.919,26.921c-14.868,0-26.92-12.054-26.92-26.921C7.901,18.01,19.953,5.958,34.821,5.958z"
         id="path183" />
      <path
         fill="#FFFF64"
         a:adobe-knockout="false"
         d="M34.713,6.087c14.699,0,26.615,11.916,26.615,26.616     c0,14.699-11.916,26.616-26.615,26.616c-14.7,0-26.616-11.917-26.616-26.616C8.097,18.003,20.013,6.087,34.713,6.087z"
         id="path184" />
      <path
         fill="#FFFF67"
         a:adobe-knockout="false"
         d="M34.604,6.216c14.531,0,26.311,11.78,26.311,26.311     c0,14.532-11.779,26.312-26.311,26.312S8.293,47.059,8.293,32.527C8.293,17.996,20.073,6.216,34.604,6.216z"
         id="path185" />
      <path
         fill="#FFFF6A"
         a:adobe-knockout="false"
         d="M34.496,6.345c14.363,0,26.007,11.644,26.007,26.007     c0,14.364-11.644,26.008-26.007,26.008S8.489,46.716,8.489,32.352C8.489,17.989,20.133,6.345,34.496,6.345z"
         id="path186" />
      <path
         fill="#FFFF6E"
         a:adobe-knockout="false"
         d="M34.388,6.475c14.196,0,25.703,11.507,25.703,25.703     S48.584,57.881,34.388,57.881c-14.195,0-25.703-11.508-25.703-25.704S20.193,6.475,34.388,6.475z"
         id="path187" />
      <path
         fill="#FFFF71"
         a:adobe-knockout="false"
         d="M34.28,6.604c14.027,0,25.398,11.371,25.398,25.398s-11.371,25.4-25.398,25.4     S8.882,46.029,8.882,32.002S20.253,6.604,34.28,6.604z"
         id="path188" />
      <path
         fill="#FFFF74"
         a:adobe-knockout="false"
         d="M34.172,6.733c13.859,0,25.093,11.235,25.093,25.094     S48.031,56.922,34.172,56.922c-13.859,0-25.094-11.236-25.094-25.095S20.313,6.733,34.172,6.733z"
         id="path189" />
      <path
         fill="#FFFF78"
         a:adobe-knockout="false"
         d="M34.064,6.862c13.692,0,24.79,11.098,24.79,24.79s-11.098,24.791-24.79,24.791     c-13.691,0-24.79-11.1-24.79-24.791S20.373,6.862,34.064,6.862z"
         id="path190" />
      <path
         fill="#FFFF7B"
         a:adobe-knockout="false"
         d="M33.956,6.991c13.523,0,24.485,10.962,24.485,24.485     c0,13.523-10.962,24.487-24.485,24.487S9.471,45,9.471,31.477C9.471,17.954,20.433,6.991,33.956,6.991z"
         id="path191" />
      <path
         fill="#FFFF7E"
         a:adobe-knockout="false"
         d="M33.848,7.121c13.355,0,24.181,10.826,24.181,24.181     c0,13.355-10.826,24.182-24.181,24.182c-13.355,0-24.181-10.827-24.181-24.182C9.667,17.946,20.493,7.121,33.848,7.121z"
         id="path192" />
      <path
         fill="#FFFF82"
         a:adobe-knockout="false"
         d="M33.74,7.25c13.187,0,23.876,10.689,23.876,23.876S46.927,55.005,33.74,55.005     S9.863,44.313,9.863,31.126S20.553,7.25,33.74,7.25z"
         id="path193" />
      <path
         fill="#FFFF85"
         a:adobe-knockout="false"
         d="M33.632,7.379c13.019,0,23.572,10.554,23.572,23.573     S46.65,54.525,33.632,54.525c-13.019,0-23.573-10.555-23.573-23.574S20.613,7.379,33.632,7.379z"
         id="path194" />
      <path
         fill="#FFFF88"
         a:adobe-knockout="false"
         d="M33.524,7.508c12.851,0,23.268,10.417,23.268,23.269     s-10.417,23.27-23.268,23.27c-12.852,0-23.269-10.418-23.269-23.27S20.672,7.508,33.524,7.508z"
         id="path195" />
      <path
         fill="#FFFF8B"
         a:adobe-knockout="false"
         d="M33.416,7.637c12.683,0,22.964,10.281,22.964,22.964     S46.099,53.566,33.416,53.566c-12.683,0-22.964-10.282-22.964-22.965S20.733,7.637,33.416,7.637z"
         id="path196" />
      <path
         fill="#FFFF8F"
         a:adobe-knockout="false"
         d="M33.308,7.766c12.515,0,22.66,10.145,22.66,22.66     c0,12.515-10.146,22.661-22.66,22.661c-12.515,0-22.66-10.146-22.66-22.661C10.648,17.911,20.792,7.766,33.308,7.766z"
         id="path197" />
      <path
         fill="#FFFF92"
         a:adobe-knockout="false"
         d="M33.2,7.896c12.347,0,22.355,10.008,22.355,22.355S45.547,52.608,33.2,52.608     s-22.355-10.01-22.355-22.357S20.853,7.896,33.2,7.896z"
         id="path198" />
      <path
         fill="#FFFF95"
         a:adobe-knockout="false"
         d="M33.092,8.025c12.179,0,22.051,9.872,22.051,22.051     c0,12.179-9.872,22.053-22.051,22.053c-12.179,0-22.051-9.874-22.051-22.053C11.041,17.897,20.913,8.025,33.092,8.025z"
         id="path199" />
      <path
         fill="#FFFF99"
         a:adobe-knockout="false"
         d="M32.983,8.154c12.011,0,21.747,9.736,21.747,21.747     c0,12.011-9.736,21.749-21.747,21.749s-21.747-9.738-21.747-21.749C11.237,17.89,20.973,8.154,32.983,8.154z"
         id="path200" />
      <path
         fill="#FFFF9C"
         a:adobe-knockout="false"
         d="M32.875,8.283c11.843,0,21.443,9.6,21.443,21.443     c0,11.843-9.6,21.444-21.443,21.444s-21.442-9.601-21.442-21.444C11.433,17.883,21.033,8.283,32.875,8.283z"
         id="path201" />
      <path
         fill="#FFFF9F"
         a:adobe-knockout="false"
         d="M32.768,8.412c11.675,0,21.138,9.463,21.138,21.139     c0,11.674-9.463,21.14-21.138,21.14c-11.675,0-21.139-9.465-21.139-21.14C11.629,17.875,21.092,8.412,32.768,8.412z"
         id="path202" />
      <path
         fill="#FFFFA3"
         a:adobe-knockout="false"
         d="M32.659,8.542c11.507,0,20.834,9.327,20.834,20.834     s-9.327,20.835-20.834,20.835s-20.834-9.329-20.834-20.835S21.152,8.542,32.659,8.542z"
         id="path203" />
      <path
         fill="#FFFFA6"
         a:adobe-knockout="false"
         d="M32.551,8.67c11.339,0,20.53,9.191,20.53,20.53s-9.191,20.532-20.53,20.532     s-20.53-9.193-20.53-20.532S21.212,8.67,32.551,8.67z"
         id="path204" />
      <path
         fill="#FFFFA9"
         a:adobe-knockout="false"
         d="M32.443,8.8c11.17,0,20.226,9.055,20.226,20.226     c0,11.17-9.055,20.227-20.226,20.227c-11.171,0-20.226-9.057-20.226-20.227C12.218,17.854,21.272,8.8,32.443,8.8z"
         id="path205" />
      <path
         fill="#FFFFAD"
         a:adobe-knockout="false"
         d="M32.335,8.929c11.003,0,19.922,8.918,19.922,19.921     s-8.919,19.923-19.922,19.923c-11.002,0-19.921-8.92-19.921-19.923S21.333,8.929,32.335,8.929z"
         id="path206" />
      <path
         fill="#FFFFB0"
         a:adobe-knockout="false"
         d="M32.227,9.058c10.834,0,19.617,8.782,19.617,19.617     c0,10.835-8.782,19.619-19.617,19.619S12.61,39.51,12.61,28.675C12.61,17.84,21.393,9.058,32.227,9.058z"
         id="path207" />
      <path
         fill="#FFFFB3"
         a:adobe-knockout="false"
         d="M32.119,9.187c10.667,0,19.312,8.646,19.312,19.313     c0,10.667-8.646,19.314-19.312,19.314c-10.667,0-19.313-8.648-19.313-19.314C12.806,17.833,21.452,9.187,32.119,9.187z"
         id="path208" />
      <path
         fill="#FFFFB7"
         a:adobe-knockout="false"
         d="M32.011,9.316c10.499,0,19.009,8.51,19.009,19.008s-8.51,19.01-19.009,19.01     c-10.499,0-19.008-8.512-19.008-19.01S21.512,9.316,32.011,9.316z"
         id="path209" />
      <path
         fill="#FFFFBA"
         a:adobe-knockout="false"
         d="M31.903,9.445c10.331,0,18.705,8.374,18.705,18.704     s-8.374,18.706-18.705,18.706S13.199,38.48,13.199,28.149S21.572,9.445,31.903,9.445z"
         id="path210" />
      <path
         fill="#FFFFBD"
         a:adobe-knockout="false"
         d="M31.795,9.575c10.163,0,18.399,8.237,18.399,18.4s-8.237,18.401-18.399,18.401     s-18.4-8.239-18.4-18.401S21.632,9.575,31.795,9.575z"
         id="path211" />
      <path
         fill="#FFFFC0"
         a:adobe-knockout="false"
         d="M31.687,9.704c9.994,0,18.095,8.101,18.095,18.096     s-8.101,18.098-18.095,18.098c-9.995,0-18.096-8.103-18.096-18.098S21.692,9.704,31.687,9.704z"
         id="path212" />
      <path
         fill="#FFFFC4"
         a:adobe-knockout="false"
         d="M31.579,9.833c9.827,0,17.792,7.965,17.792,17.792     c0,9.826-7.965,17.793-17.792,17.793c-9.826,0-17.791-7.967-17.791-17.793C13.788,17.798,21.752,9.833,31.579,9.833z"
         id="path213" />
      <path
         fill="#FFFFC7"
         a:adobe-knockout="false"
         d="M31.471,9.962c9.658,0,17.487,7.829,17.487,17.487     c0,9.658-7.829,17.489-17.487,17.489s-17.487-7.831-17.487-17.489C13.983,17.791,21.812,9.962,31.471,9.962z"
         id="path214" />
      <path
         fill="#FFFFCA"
         a:adobe-knockout="false"
         d="M31.363,10.091c9.49,0,17.182,7.692,17.182,17.183     c0,9.491-7.692,17.185-17.182,17.185c-9.491,0-17.183-7.694-17.183-17.185C14.18,17.784,21.872,10.091,31.363,10.091z"
         id="path215" />
      <path
         fill="#FFFFCE"
         a:adobe-knockout="false"
         d="M31.254,10.22c9.322,0,16.878,7.557,16.878,16.879s-7.556,16.88-16.878,16.88     s-16.878-7.558-16.878-16.88S21.932,10.22,31.254,10.22z"
         id="path216" />
      <path
         fill="#FFFFD1"
         a:adobe-knockout="false"
         d="M14.572,26.924c0-9.154,7.42-16.574,16.574-16.574s16.574,7.42,16.574,16.574     S40.301,43.5,31.146,43.5S14.572,36.078,14.572,26.924z"
         id="path217" />
    </g>
    <g
       a:adobe-knockout="true"
       id="g218">
      <path
         fill="#FFFFA2"
         a:adobe-knockout="false"
         d="M14.572,26.924c0-9.154,7.42-16.574,16.574-16.574s16.574,7.42,16.574,16.574     S40.301,43.5,31.146,43.5S14.572,36.078,14.572,26.924z"
         id="path219" />
      <path
         fill="#FFFFA4"
         a:adobe-knockout="false"
         d="M31.124,10.463c9.073,0,16.428,7.354,16.428,16.427     c0,9.073-7.354,16.429-16.428,16.429c-9.073,0-16.427-7.356-16.427-16.429C14.697,17.817,22.051,10.463,31.124,10.463z"
         id="path220" />
      <path
         fill="#FFFFA5"
         a:adobe-knockout="false"
         d="M31.102,10.578c8.992,0,16.28,7.288,16.28,16.28s-7.288,16.282-16.28,16.282     c-8.991,0-16.28-7.29-16.28-16.282S22.111,10.578,31.102,10.578z"
         id="path221" />
      <path
         fill="#FFFFA7"
         a:adobe-knockout="false"
         d="M31.08,10.691c8.911,0,16.133,7.222,16.133,16.132S39.99,42.958,31.08,42.958     c-8.91,0-16.133-7.224-16.133-16.135S22.169,10.691,31.08,10.691z"
         id="path222" />
      <path
         fill="#FFFFA8"
         a:adobe-knockout="false"
         d="M31.058,10.806c8.83,0,15.985,7.156,15.985,15.985     c0,8.829-7.156,15.987-15.985,15.987c-8.829,0-15.985-7.159-15.985-15.987C15.072,17.961,22.229,10.806,31.058,10.806z"
         id="path223" />
      <path
         fill="#FFFFAA"
         a:adobe-knockout="false"
         d="M31.036,10.919c8.748,0,15.838,7.09,15.838,15.838s-7.09,15.84-15.838,15.84     c-8.748,0-15.838-7.092-15.838-15.84S22.288,10.919,31.036,10.919z"
         id="path224" />
      <path
         fill="#FFFFAB"
         a:adobe-knockout="false"
         d="M31.013,11.033c8.667,0,15.691,7.025,15.691,15.692     c0,8.667-7.024,15.693-15.691,15.693c-8.667,0-15.691-7.026-15.691-15.693C15.322,18.058,22.347,11.033,31.013,11.033z"
         id="path225" />
      <path
         fill="#FFFFAD"
         a:adobe-knockout="false"
         d="M30.991,11.147c8.586,0,15.544,6.959,15.544,15.544     s-6.958,15.545-15.544,15.545c-8.585,0-15.544-6.96-15.544-15.545S22.406,11.147,30.991,11.147z"
         id="path226" />
      <path
         fill="#FFFFAE"
         a:adobe-knockout="false"
         d="M30.969,11.261c8.504,0,15.397,6.893,15.397,15.397     c0,8.504-6.893,15.398-15.397,15.398s-15.396-6.895-15.396-15.398C15.573,18.154,22.465,11.261,30.969,11.261z"
         id="path227" />
      <path
         fill="#FFFFB0"
         a:adobe-knockout="false"
         d="M30.947,11.375c8.423,0,15.25,6.827,15.25,15.25s-6.827,15.251-15.25,15.251     s-15.25-6.829-15.25-15.251S22.524,11.375,30.947,11.375z"
         id="path228" />
      <path
         fill="#FFFFB1"
         a:adobe-knockout="false"
         d="M30.925,11.489c8.342,0,15.103,6.761,15.103,15.103     c0,8.342-6.761,15.104-15.103,15.104c-8.341,0-15.103-6.763-15.103-15.104C15.822,18.25,22.583,11.489,30.925,11.489z"
         id="path229" />
      <path
         fill="#FFFFB3"
         a:adobe-knockout="false"
         d="M30.903,11.603c8.26,0,14.956,6.695,14.956,14.956     c0,8.26-6.695,14.957-14.956,14.957s-14.956-6.697-14.956-14.957C15.947,18.298,22.643,11.603,30.903,11.603z"
         id="path230" />
      <path
         fill="#FFFFB4"
         a:adobe-knockout="false"
         d="M30.88,11.716c8.179,0,14.808,6.629,14.808,14.808     c0,8.179-6.629,14.811-14.808,14.811c-8.179,0-14.808-6.631-14.808-14.811C16.072,18.346,22.701,11.716,30.88,11.716z"
         id="path231" />
      <path
         fill="#FFFFB6"
         a:adobe-knockout="false"
         d="M30.858,11.831c8.098,0,14.661,6.563,14.661,14.661     s-6.563,14.663-14.661,14.663s-14.661-6.565-14.661-14.663S22.761,11.831,30.858,11.831z"
         id="path232" />
      <path
         fill="#FFFFB7"
         a:adobe-knockout="false"
         d="M30.836,11.945c8.017,0,14.515,6.497,14.515,14.514     c0,8.016-6.498,14.516-14.515,14.516c-8.016,0-14.514-6.5-14.514-14.516C16.322,18.442,22.82,11.945,30.836,11.945z"
         id="path233" />
      <path
         fill="#FFFFB9"
         a:adobe-knockout="false"
         d="M30.814,12.059c7.936,0,14.367,6.432,14.367,14.367     c0,7.935-6.432,14.368-14.367,14.368c-7.935,0-14.367-6.434-14.367-14.368C16.447,18.49,22.879,12.059,30.814,12.059z"
         id="path234" />
      <path
         fill="#FFFFBA"
         a:adobe-knockout="false"
         d="M30.792,12.172c7.854,0,14.22,6.366,14.22,14.22     c0,7.854-6.366,14.222-14.22,14.222c-7.854,0-14.219-6.367-14.219-14.222C16.573,18.539,22.938,12.172,30.792,12.172z"
         id="path235" />
      <path
         fill="#FFFFBC"
         a:adobe-knockout="false"
         d="M30.77,12.286c7.772,0,14.073,6.3,14.073,14.073     c0,7.772-6.3,14.074-14.073,14.074s-14.072-6.302-14.072-14.074C16.697,18.586,22.997,12.286,30.77,12.286z"
         id="path236" />
      <path
         fill="#FFFFBD"
         a:adobe-knockout="false"
         d="M30.747,12.4c7.691,0,13.926,6.234,13.926,13.925s-6.234,13.927-13.926,13.927     c-7.691,0-13.925-6.236-13.925-13.927S23.056,12.4,30.747,12.4z"
         id="path237" />
      <path
         fill="#FFFFBF"
         a:adobe-knockout="false"
         d="M30.726,12.514c7.61,0,13.778,6.168,13.778,13.778     c0,7.61-6.168,13.78-13.778,13.78s-13.778-6.169-13.778-13.78C16.947,18.682,23.116,12.514,30.726,12.514z"
         id="path238" />
      <path
         fill="#FFFFC0"
         a:adobe-knockout="false"
         d="M30.704,12.628c7.528,0,13.631,6.103,13.631,13.631     c0,7.529-6.103,13.632-13.631,13.632c-7.529,0-13.631-6.104-13.631-13.632C17.073,18.731,23.175,12.628,30.704,12.628z"
         id="path239" />
      <path
         fill="#FFFFC2"
         a:adobe-knockout="false"
         d="M30.681,12.742c7.447,0,13.484,6.037,13.484,13.483     c0,7.448-6.037,13.485-13.484,13.485s-13.484-6.038-13.484-13.485C17.197,18.779,23.234,12.742,30.681,12.742z"
         id="path240" />
      <path
         fill="#FFFFC4"
         a:adobe-knockout="false"
         d="M30.659,12.855c7.366,0,13.337,5.971,13.337,13.337S38.025,39.53,30.659,39.53     s-13.337-5.972-13.337-13.338S23.292,12.855,30.659,12.855z"
         id="path241" />
      <path
         fill="#FFFFC5"
         a:adobe-knockout="false"
         d="M30.637,12.97c7.285,0,13.19,5.905,13.19,13.189     c0,7.285-5.905,13.191-13.19,13.191s-13.189-5.906-13.189-13.191C17.447,18.875,23.352,12.97,30.637,12.97z"
         id="path242" />
      <path
         fill="#FFFFC7"
         a:adobe-knockout="false"
         d="M30.615,13.084c7.204,0,13.042,5.839,13.042,13.042S37.818,39.17,30.615,39.17     c-7.203,0-13.042-5.84-13.042-13.044S23.412,13.084,30.615,13.084z"
         id="path243" />
      <path
         fill="#FFFFC8"
         a:adobe-knockout="false"
         d="M30.592,13.198c7.123,0,12.896,5.773,12.896,12.895S37.715,38.99,30.592,38.99     c-7.122,0-12.895-5.775-12.895-12.897S23.47,13.198,30.592,13.198z"
         id="path244" />
      <path
         fill="#FFFFCA"
         a:adobe-knockout="false"
         d="M30.57,13.311c7.041,0,12.748,5.708,12.748,12.749s-5.707,12.75-12.748,12.75     s-12.748-5.708-12.748-12.75S23.529,13.311,30.57,13.311z"
         id="path245" />
      <path
         fill="#FFFFCB"
         a:adobe-knockout="false"
         d="M30.548,13.425c6.96,0,12.602,5.641,12.602,12.601     s-5.642,12.603-12.602,12.603c-6.959,0-12.601-5.643-12.601-12.603S23.588,13.425,30.548,13.425z"
         id="path246" />
      <path
         fill="#FFFFCD"
         a:adobe-knockout="false"
         d="M30.526,13.54c6.879,0,12.455,5.575,12.455,12.454     c0,6.879-5.576,12.456-12.455,12.456c-6.878,0-12.454-5.577-12.454-12.456C18.072,19.115,23.648,13.54,30.526,13.54z"
         id="path247" />
      <path
         fill="#FFFFCE"
         a:adobe-knockout="false"
         d="M30.504,13.653c6.797,0,12.307,5.51,12.307,12.307     c0,6.797-5.51,12.308-12.307,12.308c-6.797,0-12.307-5.511-12.307-12.308C18.197,19.163,23.707,13.653,30.504,13.653z"
         id="path248" />
      <path
         fill="#FFFFD0"
         a:adobe-knockout="false"
         d="M30.482,13.767c6.715,0,12.159,5.444,12.159,12.159     c0,6.716-5.444,12.161-12.159,12.161c-6.716,0-12.16-5.445-12.16-12.161C18.322,19.211,23.766,13.767,30.482,13.767z"
         id="path249" />
      <path
         fill="#FFFFD1"
         a:adobe-knockout="false"
         d="M30.459,13.881c6.635,0,12.013,5.377,12.013,12.012     s-5.378,12.014-12.013,12.014s-12.012-5.379-12.012-12.014S23.825,13.881,30.459,13.881z"
         id="path250" />
      <path
         fill="#FFFFD3"
         a:adobe-knockout="false"
         d="M30.438,13.995c6.553,0,11.865,5.312,11.865,11.865     c0,6.553-5.312,11.866-11.865,11.866S18.572,32.414,18.572,25.86C18.572,19.307,23.884,13.995,30.438,13.995z"
         id="path251" />
      <path
         fill="#FFFFD4"
         a:adobe-knockout="false"
         d="M30.415,14.109c6.472,0,11.718,5.246,11.718,11.718     s-5.246,11.719-11.718,11.719c-6.472,0-11.718-5.247-11.718-11.719S23.943,14.109,30.415,14.109z"
         id="path252" />
      <path
         fill="#FFFFD6"
         a:adobe-knockout="false"
         d="M30.393,14.223c6.391,0,11.571,5.181,11.571,11.571     s-5.18,11.572-11.571,11.572c-6.391,0-11.571-5.181-11.571-11.572S24.002,14.223,30.393,14.223z"
         id="path253" />
      <path
         fill="#FFFFD7"
         a:adobe-knockout="false"
         d="M30.371,14.337c6.31,0,11.424,5.114,11.424,11.424     s-5.114,11.425-11.424,11.425S18.947,32.07,18.947,25.761S24.062,14.337,30.371,14.337z"
         id="path254" />
      <path
         fill="#FFFFD9"
         a:adobe-knockout="false"
         d="M30.349,14.451c6.229,0,11.277,5.048,11.277,11.277     c0,6.228-5.048,11.277-11.277,11.277c-6.228,0-11.276-5.049-11.276-11.277C19.072,19.499,24.121,14.451,30.349,14.451z"
         id="path255" />
      <path
         fill="#FFFFDA"
         a:adobe-knockout="false"
         d="M30.327,14.565c6.147,0,11.129,4.982,11.129,11.129     c0,6.146-4.982,11.13-11.129,11.13s-11.129-4.984-11.129-11.13C19.197,19.547,24.18,14.565,30.327,14.565z"
         id="path256" />
      <path
         fill="#FFFFDC"
         a:adobe-knockout="false"
         d="M30.305,14.679c6.065,0,10.982,4.917,10.982,10.982     c0,6.065-4.917,10.983-10.982,10.983c-6.066,0-10.982-4.917-10.982-10.983C19.322,19.595,24.239,14.679,30.305,14.679z"
         id="path257" />
      <path
         fill="#FFFFDD"
         a:adobe-knockout="false"
         d="M30.282,14.792c5.984,0,10.835,4.851,10.835,10.835     c0,5.984-4.851,10.836-10.835,10.836s-10.835-4.852-10.835-10.836C19.447,19.643,24.298,14.792,30.282,14.792z"
         id="path258" />
      <path
         fill="#FFFFDF"
         a:adobe-knockout="false"
         d="M30.26,14.906c5.903,0,10.688,4.785,10.688,10.688     c0,5.903-4.785,10.689-10.688,10.689s-10.688-4.786-10.688-10.689C19.572,19.691,24.357,14.906,30.26,14.906z"
         id="path259" />
      <path
         fill="#FFFFE1"
         a:adobe-knockout="false"
         d="M30.238,15.021c5.822,0,10.541,4.719,10.541,10.541     S36.06,36.103,30.238,36.103c-5.821,0-10.541-4.72-10.541-10.542S24.417,15.021,30.238,15.021z"
         id="path260" />
      <path
         fill="#FFFFE2"
         a:adobe-knockout="false"
         d="M30.216,15.134c5.741,0,10.394,4.653,10.394,10.394     s-4.653,10.395-10.394,10.395s-10.394-4.654-10.394-10.395S24.475,15.134,30.216,15.134z"
         id="path261" />
      <path
         fill="#FFFFE4"
         a:adobe-knockout="false"
         d="M30.194,15.249c5.659,0,10.247,4.587,10.247,10.246     s-4.587,10.248-10.247,10.248s-10.247-4.588-10.247-10.248S24.535,15.249,30.194,15.249z"
         id="path262" />
      <path
         fill="#FFFFE5"
         a:adobe-knockout="false"
         d="M30.171,15.362c5.578,0,10.1,4.521,10.1,10.099s-4.521,10.1-10.1,10.1     c-5.578,0-10.099-4.522-10.099-10.1S24.594,15.362,30.171,15.362z"
         id="path263" />
      <path
         fill="#FFFFE7"
         a:adobe-knockout="false"
         d="M30.149,15.476c5.497,0,9.952,4.456,9.952,9.952s-4.456,9.953-9.952,9.953     c-5.497,0-9.952-4.457-9.952-9.953S24.652,15.476,30.149,15.476z"
         id="path264" />
      <path
         fill="#FFFFE8"
         a:adobe-knockout="false"
         d="M30.127,15.59c5.416,0,9.805,4.39,9.805,9.805s-4.389,9.806-9.805,9.806     s-9.805-4.39-9.805-9.806S24.712,15.59,30.127,15.59z"
         id="path265" />
      <path
         fill="#FFFFEA"
         a:adobe-knockout="false"
         d="M30.105,15.704c5.334,0,9.658,4.323,9.658,9.658     c0,5.334-4.324,9.659-9.658,9.659c-5.334,0-9.658-4.325-9.658-9.659C20.447,20.027,24.771,15.704,30.105,15.704z"
         id="path266" />
      <path
         fill="#FFFFEB"
         a:adobe-knockout="false"
         d="M30.083,15.818c5.253,0,9.511,4.258,9.511,9.511s-4.258,9.511-9.511,9.511     s-9.511-4.258-9.511-9.511S24.83,15.818,30.083,15.818z"
         id="path267" />
      <path
         fill="#FFFFED"
         a:adobe-knockout="false"
         d="M30.061,15.932c5.172,0,9.364,4.192,9.364,9.364     c0,5.171-4.192,9.364-9.364,9.364c-5.171,0-9.363-4.193-9.363-9.364C20.697,20.124,24.889,15.932,30.061,15.932z"
         id="path268" />
      <path
         fill="#FFFFEE"
         a:adobe-knockout="false"
         d="M30.039,16.045c5.09,0,9.216,4.126,9.216,9.217s-4.126,9.217-9.216,9.217     s-9.216-4.126-9.216-9.217S24.948,16.045,30.039,16.045z"
         id="path269" />
      <path
         fill="#FFFFF0"
         a:adobe-knockout="false"
         d="M30.017,16.16c5.009,0,9.069,4.06,9.069,9.069c0,5.009-4.061,9.07-9.069,9.07     c-5.009,0-9.069-4.061-9.069-9.07C20.947,20.22,25.007,16.16,30.017,16.16z"
         id="path270" />
      <path
         fill="#FFFFF1"
         a:adobe-knockout="false"
         d="M29.994,16.273c4.928,0,8.922,3.995,8.922,8.922s-3.994,8.922-8.922,8.922     c-4.928,0-8.922-3.995-8.922-8.922S25.066,16.273,29.994,16.273z"
         id="path271" />
      <path
         fill="#FFFFF3"
         a:adobe-knockout="false"
         d="M29.972,16.387c4.847,0,8.775,3.929,8.775,8.775     c0,4.846-3.928,8.775-8.775,8.775s-8.775-3.929-8.775-8.775C21.197,20.316,25.125,16.387,29.972,16.387z"
         id="path272" />
      <path
         fill="#FFFFF4"
         a:adobe-knockout="false"
         d="M29.95,16.501c4.765,0,8.627,3.862,8.627,8.627     c0,4.766-3.862,8.628-8.627,8.628c-4.766,0-8.628-3.863-8.628-8.628C21.322,20.364,25.185,16.501,29.95,16.501z"
         id="path273" />
      <path
         fill="#FFFFF6"
         a:adobe-knockout="false"
         d="M29.928,16.615c4.684,0,8.48,3.797,8.48,8.48c0,4.684-3.796,8.481-8.48,8.481     c-4.684,0-8.48-3.797-8.48-8.481C21.447,20.412,25.244,16.615,29.928,16.615z"
         id="path274" />
      <path
         fill="#FFFFF7"
         a:adobe-knockout="false"
         d="M29.906,16.729c4.603,0,8.333,3.731,8.333,8.333     c0,4.603-3.731,8.334-8.333,8.334s-8.333-3.731-8.333-8.334C21.572,20.46,25.303,16.729,29.906,16.729z"
         id="path275" />
      <path
         fill="#FFFFF9"
         a:adobe-knockout="false"
         d="M29.883,16.843c4.521,0,8.187,3.665,8.187,8.186s-3.665,8.187-8.187,8.187     c-4.521,0-8.186-3.666-8.186-8.187S25.362,16.843,29.883,16.843z"
         id="path276" />
      <path
         fill="#FFFFFA"
         a:adobe-knockout="false"
         d="M29.861,16.957c4.44,0,8.039,3.599,8.039,8.039c0,4.44-3.599,8.04-8.039,8.04     c-4.44,0-8.039-3.599-8.039-8.04C21.822,20.556,25.421,16.957,29.861,16.957z"
         id="path277" />
      <path
         fill="#FFFFFC"
         a:adobe-knockout="false"
         d="M29.839,17.071c4.359,0,7.892,3.533,7.892,7.892s-3.533,7.893-7.892,7.893     s-7.892-3.534-7.892-7.893S25.48,17.071,29.839,17.071z"
         id="path278" />
      <path
         fill="#FFFFFD"
         a:adobe-knockout="false"
         d="M29.817,17.185c4.278,0,7.745,3.467,7.745,7.745     c0,4.278-3.467,7.746-7.745,7.746c-4.277,0-7.745-3.468-7.745-7.746C22.072,20.652,25.54,17.185,29.817,17.185z"
         id="path279" />
      <path
         fill="#FFFFFF"
         a:adobe-knockout="false"
         d="M22.197,24.896c0-4.196,3.401-7.598,7.598-7.598s7.598,3.401,7.598,7.598     s-3.401,7.598-7.598,7.598S22.197,29.093,22.197,24.896z"
         id="path280" />
    </g>
    <path
       opacity="0.2"
       d="M90.271,102.633H38.208v14.528h52.062V102.633z"
       id="path281" />
    <path
       d="M29.512,107.597v-1.062h-1.394v1.062c0,5.363,4.432,9.564,10.09,9.564c5.66,0,10.091-4.201,10.091-9.564v-1.062h-1.395    v1.062"
       id="path282" />
    <g
       a:adobe-blending-mode="multiply"
       id="g283">
      <radialGradient
         id="XMLID_1_"
         cx="41.0967"
         cy="63.2188"
         r="42.2619"
         fx="41.0967"
         fy="63.2188"
         gradientUnits="userSpaceOnUse">
        <stop
           offset="0.0223"
           style="stop-color:#FFFF00"
           id="stop285" />
        <stop
           offset="0.3669"
           style="stop-color:#FFDE00"
           id="stop286" />
        <stop
           offset="1"
           style="stop-color:#FF9901"
           id="stop287" />
        
        
        
      </radialGradient>
      <path
         fill="url(#XMLID_1_)"
         a:adobe-blending-mode="normal"
         d="M10.394,61.432c3.13,3.692,6.981,6.755,11.344,8.958v30.579     c0,5.35,7.295,9.686,16.297,9.686c9.001,0,16.298-4.336,16.298-9.686V70.39c9.763-4.929,16.979-14.145,19.197-25.173     C60.716,63.823,38.331,78.07,10.394,61.432z"
         id="path291" />
    </g>
    <g
       id="g292">
      <linearGradient
         id="XMLID_2_"
         gradientUnits="userSpaceOnUse"
         x1="21.7393"
         y1="94.1436"
         x2="54.335"
         y2="94.1436">
        <stop
           offset="0.0223"
           style="stop-color:#C2C2C2"
           id="stop294" />
        <stop
           offset="0.3855"
           style="stop-color:#FFFFFF"
           id="stop295" />
        <stop
           offset="1"
           style="stop-color:#000000"
           id="stop296" />
        
        
        
        
        
      </linearGradient>
      <path
         fill="url(#XMLID_2_)"
         d="M21.739,77.902c0,5.35,7.298,9.686,16.298,9.686s16.298-4.336,16.298-9.686v22.796     c0,5.35-7.298,9.687-16.298,9.687s-16.298-4.337-16.298-9.687V77.902z"
         id="path302" />
    </g>
    <path
       d="M76.073,38.036C76.073,17.062,59.011,0,38.037,0C17.062,0,0,17.062,0,38.036c0,12.639,6.255,24.4,16.734,31.499    c3.422,2.835,3.208,6.064,3.197,6.201l-0.006,0.071l-0.003,0.095v25.057c0,6.45,7.956,11.502,18.114,11.502    c10.157,0,18.113-5.052,18.113-11.502V75.902l-0.002-0.095l-0.006-0.071c-0.011-0.137-0.225-3.366,3.197-6.201    C69.819,62.437,76.073,50.675,76.073,38.036z M57.188,66.611l-0.074,0.05l-0.069,0.057c-4.627,3.818-4.576,8.408-4.526,9.239    v25.002c0,4.267-6.632,7.87-14.481,7.87s-14.481-3.604-14.481-7.87V75.957c0.05-0.831,0.101-5.421-4.526-9.239l-0.069-0.057    l-0.075-0.05C9.335,60.196,3.633,49.515,3.633,38.036c0-18.971,15.433-34.403,34.404-34.403c18.971,0,34.404,15.433,34.404,34.403    C72.441,49.515,66.739,60.196,57.188,66.611z"
       id="path303" />
    <g
       a:adobe-blending-mode="multiply"
       id="g304">
      <radialGradient
         id="XMLID_3_"
         cx="38.2334"
         cy="29.2397"
         r="8.2403"
         fx="38.2334"
         fy="29.2397"
         gradientUnits="userSpaceOnUse">
        <stop
           offset="0.0223"
           style="stop-color:#FFFF00"
           id="stop306" />
        <stop
           offset="0.3669"
           style="stop-color:#FFDE00"
           id="stop307" />
        <stop
           offset="1"
           style="stop-color:#FF9901"
           id="stop308" />
        
        
        
      </radialGradient>
      <path
         fill="url(#XMLID_3_)"
         a:adobe-blending-mode="normal"
         d="M38.447,31.171c1.393,0,2.381,0.33,3.023,1.011     c1.338,1.419,1.166,4.365,1.027,6.733l-0.082,1.992c0,2.671-4.562,3.63-4.607,3.639l-0.98,0.19l-0.002,0.999v40.767h2.422     c0,0,0-38.048,0-39.832c1.83-0.547,5.59-2.108,5.59-5.763l0.077-1.852c0.047-0.812,0.098-1.681,0.098-2.558     c0-2.184-0.314-4.423-1.78-5.979c-1.109-1.174-2.719-1.771-4.785-1.771V31.171z"
         id="path312" />
    </g>
    <g
       opacity="0.5"
       a:adobe-blending-mode="multiply"
       id="g313">
      <radialGradient
         id="XMLID_4_"
         cx="47.9961"
         cy="66.8613"
         r="8.7954"
         fx="47.9961"
         fy="66.8613"
         gradientUnits="userSpaceOnUse">
        <stop
           offset="0.0223"
           style="stop-color:#FFFF00"
           id="stop315" />
        <stop
           offset="0.3669"
           style="stop-color:#FFDE00"
           id="stop316" />
        <stop
           offset="1"
           style="stop-color:#FF9901"
           id="stop317" />
        
        
        
      </radialGradient>
      <path
         fill="url(#XMLID_4_)"
         a:adobe-blending-mode="normal"
         d="M44.133,71.055v15.447h4.37c0,0-1.357-13.986,3.027-18.614     C47.877,71.298,44.133,71.055,44.133,71.055z"
         id="path321" />
    </g>
    <g
       a:adobe-blending-mode="multiply"
       id="g322">
      <radialGradient
         id="XMLID_5_"
         cx="27.7793"
         cy="48.6553"
         r="17.0139"
         fx="27.7793"
         fy="48.6553"
         gradientUnits="userSpaceOnUse">
        <stop
           offset="0.0223"
           style="stop-color:#FFFF00"
           id="stop324" />
        <stop
           offset="0.3669"
           style="stop-color:#FFDE00"
           id="stop325" />
        <stop
           offset="1"
           style="stop-color:#FF9901"
           id="stop326" />
        
        
        
      </radialGradient>
      <path
         fill="url(#XMLID_5_)"
         a:adobe-blending-mode="normal"
         d="M32.926,30.52c-2.055,2.18-1.849,5.705-1.683,8.536l0.077,1.852     c0,4.716,6.307,5.967,6.575,6.018l0.453-2.379c-0.046-0.009-4.607-0.968-4.607-3.639l-0.081-1.992     c-0.139-2.368-0.312-5.313,1.027-6.733c0.642-0.681,1.63-1.011,3.023-1.011v-2.422C35.644,28.749,34.034,29.346,32.926,30.52z"
         id="path330" />
    </g>
    <path
       fill="#FFFF99"
       d="M24.802,66.519c9.451,10.184,4.787,20.285,4.787,20.285h4.843V63.218    C34.432,63.218,22.586,64.132,24.802,66.519z"
       id="path331" />
    <g
       a:adobe-knockout="true"
       id="g332">
      <path
         a:adobe-knockout="false"
         d="M53.124,91.931v1.21c0,4.595-6.908,8.476-15.087,8.476S22.95,97.735,22.95,93.141v-1.21     h-2.422v1.21c0,6.11,7.69,10.897,17.509,10.897s17.509-4.787,17.509-10.897v-1.21H53.124z"
         id="path333" />
      <path
         a:adobe-knockout="false"
         d="M53.124,84.374v1.211c0,4.593-6.908,8.474-15.087,8.474S22.95,90.178,22.95,85.585v-1.211     h-2.422v1.211c0,6.109,7.69,10.896,17.509,10.896s17.509-4.786,17.509-10.896v-1.211H53.124z"
         id="path334" />
      <path
         a:adobe-knockout="false"
         d="M53.124,76.816v1.21c0,4.595-6.908,8.476-15.087,8.476S22.95,82.621,22.95,78.026v-1.21     h-2.422v1.21c0,6.111,7.69,10.897,17.509,10.897s17.509-4.786,17.509-10.897v-1.21H53.124z"
         id="path335" />
    </g>
  </g>
</svg>
